<svg width="20" height="24" viewBox="0 0 20 24" fill="none" xmlns="http://www.w3.org/2000/svg">
<g clip-path="url(#clip0_3628_14292)">
<path d="M18.4521 8.32799C18.3537 8.38959 16.0113 9.68959 16.0113 12.572C16.1217 15.8592 18.9673 17.012 19.0161 17.012C18.9673 17.0736 18.5865 18.5824 17.4585 20.164C16.5633 21.5264 15.5697 22.9 14.0609 22.9C12.6257 22.9 12.1105 21.992 10.4545 21.992C8.67608 21.992 8.17288 22.9 6.81128 22.9C5.30248 22.9 4.23528 21.4528 3.29128 20.1032C2.06488 18.3368 1.02248 15.5648 0.985685 12.9032C0.960885 11.4928 1.23128 10.1064 1.91768 8.92879C2.88648 7.28479 4.61608 6.16879 6.50488 6.13199C7.95208 6.08319 9.24008 7.12559 10.1233 7.12559C10.9697 7.12559 12.5521 6.13199 14.3425 6.13199C15.1153 6.13279 17.1761 6.36559 18.4521 8.32799ZM10.0009 5.85039C9.74329 4.56239 10.4545 3.27439 11.1169 2.45279C11.9633 1.45919 13.3001 0.78479 14.4529 0.78479C14.5265 2.07279 14.0601 3.33599 13.2265 4.25599C12.4785 5.24959 11.1905 5.99759 10.0009 5.85039Z" fill="black"/>
</g>
<defs>
<clipPath id="clip0_3628_14292">
<rect width="20" height="23" fill="white" transform="translate(0 0.5)"/>
</clipPath>
</defs>
</svg>
