<svg width="94" height="44" viewBox="0 0 94 44" fill="none" xmlns="http://www.w3.org/2000/svg">
<path d="M2.88 34V8.152H6.876V30.22H15.084V34H2.88ZM17.4459 34L27.9219 7.072L38.4699 34H34.1499L32.7819 30.364H23.0259L21.6939 34H17.4459ZM27.8499 17.404L24.4299 26.584H31.3419L27.8499 17.404ZM41.6925 34V8.152H45.6885V34H41.6925ZM69.3579 28.996L71.5179 32.2C71.3019 32.368 70.9899 32.584 70.5819 32.848C70.1739 33.112 69.2979 33.46 67.9539 33.892C66.6099 34.324 65.2299 34.54 63.8139 34.54C60.0939 34.54 56.9499 33.256 54.3819 30.688C51.8379 28.096 50.5659 24.892 50.5659 21.076C50.5659 17.26 51.8379 14.068 54.3819 11.5C56.9499 8.908 60.0939 7.612 63.8139 7.612C65.2059 7.612 66.5379 7.816 67.8099 8.224C69.0819 8.608 70.0179 8.992 70.6179 9.376L71.4819 9.952L69.3579 13.12C69.2139 13 68.9859 12.844 68.6739 12.652C68.3859 12.46 67.7619 12.208 66.8019 11.896C65.8659 11.56 64.8939 11.392 63.8859 11.392C61.1979 11.392 58.9659 12.328 57.1899 14.2C55.4379 16.048 54.5619 18.34 54.5619 21.076C54.5619 23.812 55.4379 26.116 57.1899 27.988C58.9659 29.836 61.1979 30.76 63.8859 30.76C64.8939 30.76 65.8539 30.616 66.7659 30.328C67.6779 30.04 68.3379 29.752 68.7459 29.464L69.3579 28.996ZM72.6061 34L83.0821 7.072L93.6301 34H89.3101L87.9421 30.364H78.1861L76.8541 34H72.6061ZM83.0101 17.404L79.5901 26.584H86.5021L83.0101 17.404Z" fill="white"/>
</svg>
