<svg width="60" height="60" viewBox="0 0 60 60" fill="none" xmlns="http://www.w3.org/2000/svg">
<mask id="mask0_3546_35476" style="mask-type:luminance" maskUnits="userSpaceOnUse" x="7" y="1" width="48" height="58">
<path d="M7.4375 1H54.8239V58.9999H7.4375V1Z" fill="white"/>
</mask>
<g mask="url(#mask0_3546_35476)">
<mask id="mask1_3546_35476" style="mask-type:luminance" maskUnits="userSpaceOnUse" x="-11" y="-18" width="76" height="77">
<path d="M-10.0308 21.8657V19.4803C-10.0308 18.2646 -9.97088 17.053 -9.85111 15.8453C-9.73134 14.6357 -9.55368 13.436 -9.31614 12.2443C-9.0786 11.0526 -8.78517 9.87686 -8.43185 8.71311C-8.07853 7.55135 -7.66932 6.40956 -7.20422 5.28773C-6.73912 4.1639 -6.22013 3.06801 -5.64524 1.99609C-5.07234 0.926153 -4.44955 -0.115833 -3.77285 -1.12588C-3.09816 -2.13593 -2.37356 -3.11005 -1.60305 -4.04823C-0.830541 -4.98842 -0.0161142 -5.88668 0.844223 -6.74502C1.70456 -7.60536 2.60282 -8.41979 3.54301 -9.1903C4.48319 -9.96081 5.4593 -10.6834 6.46935 -11.3581C7.4814 -12.0328 8.52139 -12.6576 9.59531 -13.2305C10.6672 -13.8014 11.7651 -14.3204 12.8889 -14.7855C14.0108 -15.2506 15.1546 -15.6598 16.3183 -16.0111C17.4821 -16.3644 18.6598 -16.6599 19.8535 -16.8954C21.0452 -17.133 22.2469 -17.3106 23.4565 -17.4304C24.6662 -17.5501 25.8798 -17.608 27.0955 -17.608C28.3111 -17.608 29.5248 -17.5501 30.7345 -17.4304C31.9441 -17.3106 33.1458 -17.133 34.3375 -16.8954C35.5312 -16.6599 36.7089 -16.3644 37.8727 -16.0111C39.0364 -15.6598 40.1802 -15.2506 41.302 -14.7855C42.4259 -14.3204 43.5237 -13.8014 44.5957 -13.2305C45.6676 -12.6576 46.7096 -12.0328 47.7216 -11.3581C48.7317 -10.6834 49.7078 -9.96081 50.648 -9.1903C51.5882 -8.41979 52.4864 -7.60536 53.3468 -6.74502C54.2071 -5.88668 55.0215 -4.98842 55.794 -4.04823C56.5645 -3.11005 57.2891 -2.13593 57.9638 -1.12588C58.6385 -0.115833 59.2633 0.926153 59.8362 1.99609C60.4091 3.06801 60.9301 4.1639 61.3952 5.28773C61.8603 6.40956 62.2695 7.55135 62.6228 8.71311C62.9742 9.87686 63.2696 11.0526 63.5071 12.2443C63.7447 13.436 63.9223 14.6357 64.0421 15.8453C64.1619 17.053 64.2197 18.2646 64.2197 19.4803V21.8657C64.2197 23.0813 64.1619 24.293 64.0421 25.5027C63.9223 26.7103 63.7447 27.91 63.5071 29.1017C63.2696 30.2934 62.9742 31.4711 62.6228 32.6329C62.2695 33.7946 61.8603 34.9384 61.3952 36.0603C60.9301 37.1821 60.4091 38.28 59.8362 39.3499C59.2633 40.4218 58.6385 41.4618 57.9638 42.4719C57.2891 43.4819 56.5645 44.456 55.794 45.3962C55.0215 46.3344 54.2071 47.2347 53.3468 48.093C52.4864 48.9514 51.5882 49.7658 50.648 50.5363C49.7078 51.3068 48.7317 52.0294 47.7216 52.7061C46.7096 53.3808 45.6676 54.0036 44.5957 54.5765C43.5237 55.1494 42.4259 55.6684 41.302 56.1335C40.1802 56.5966 39.0364 57.0058 37.8727 57.3591C36.7089 57.7104 35.5312 58.0059 34.3375 58.2434C33.1458 58.4809 31.9441 58.6586 30.7345 58.7764C29.5248 58.8961 28.3111 58.956 27.0955 58.956C25.8798 58.956 24.6662 58.8961 23.4565 58.7764C22.2469 58.6586 21.0452 58.4809 19.8535 58.2434C18.6598 58.0059 17.4821 57.7104 16.3183 57.3591C15.1546 57.0058 14.0108 56.5966 12.8889 56.1335C11.7651 55.6684 10.6672 55.1494 9.59531 54.5765C8.52139 54.0036 7.4814 53.3808 6.46935 52.7061C5.4593 52.0294 4.48319 51.3068 3.54301 50.5363C2.60282 49.7658 1.70456 48.9514 0.844223 48.093C-0.0161142 47.2347 -0.830541 46.3344 -1.60305 45.3962C-2.37356 44.456 -3.09816 43.4819 -3.77285 42.4719C-4.44955 41.4618 -5.07234 40.4218 -5.64524 39.3499C-6.22013 38.28 -6.73912 37.1821 -7.20422 36.0603C-7.66932 34.9384 -8.07853 33.7946 -8.43185 32.6329C-8.78517 31.4711 -9.0786 30.2934 -9.31614 29.1017C-9.55368 27.91 -9.73134 26.7103 -9.85111 25.5027C-9.97088 24.293 -10.0308 23.0813 -10.0308 21.8657Z" fill="white"/>
</mask>
<g mask="url(#mask1_3546_35476)">
<path d="M51.2769 57.5807C51.1711 57.9161 51.2509 57.966 51.5124 57.7344C54.4068 55.1534 56.0696 51.9476 56.5008 48.121C56.6465 46.8395 58.2015 46.6778 58.966 47.5681C59.0519 47.6699 59.0958 47.7876 59.0998 47.9194C59.1118 48.5701 59.1477 49.2249 59.002 49.8716C57.7125 55.6285 54.4168 59.8563 49.1171 62.5531C48.0312 63.108 46.7576 62.084 47.2347 60.9163C49.3666 55.7223 50.5703 50.2329 50.8477 44.4461C51.4685 31.6069 46.2466 19.662 37.1921 10.5456C32.2996 5.62512 22.9716 0.546933 17.0311 6.93858C15.9232 8.13028 14.8852 9.35591 13.9191 10.6135C12.953 11.879 13.8113 13.8233 14.3123 15.1707C14.3822 15.3543 14.4041 15.5539 14.3742 15.7496C14.3463 15.9452 14.2704 16.1308 14.1506 16.2905C13.0488 17.7637 11.8371 19.1849 10.5117 20.5543C10.4777 20.5902 10.4518 20.6341 10.4358 20.682C10.4179 20.7279 10.4119 20.7778 10.4179 20.8277C10.4218 20.8776 10.4378 20.9256 10.4618 20.9675C10.4857 21.0114 10.5197 21.0473 10.5616 21.0753C11.6375 21.8418 12.6755 22.5125 13.6776 23.0894C17.1369 25.0775 21.0812 19.7179 23.9277 22.8339C24.7701 23.7601 25.0057 24.7881 24.6304 25.9199C23.9617 27.928 23.1313 29.8523 22.1372 31.6967C20.5882 34.5672 20.0293 37.1143 20.7579 40.2702C20.9395 41.0666 20.4505 42.1186 19.4843 42.0567C18.7877 42.0168 18.3465 41.6595 18.1609 40.9868C17.2087 37.5095 17.7916 34.1101 19.5163 30.9162C20.4904 29.1177 21.3407 27.1755 22.0693 25.0875C22.0873 25.0356 22.0953 24.9817 22.0913 24.9278C22.0893 24.8739 22.0753 24.822 22.0514 24.7741C22.0294 24.7262 21.9955 24.6823 21.9556 24.6484C21.9156 24.6124 21.8697 24.5865 21.8178 24.5685C21.6701 24.5186 21.5224 24.5186 21.3727 24.5685C20.3287 24.9358 19.3007 25.3231 18.2906 25.7343C16.035 26.6505 13.6815 26.401 11.7054 25.0875C10.9987 24.6184 10.3101 24.1713 9.63736 23.7481C7.54141 22.4386 7.02042 20.2788 8.83292 18.4004C9.76312 17.4323 10.6075 16.4602 11.362 15.4821C11.4079 15.4222 11.4379 15.3523 11.4499 15.2765C11.4618 15.2026 11.4558 15.1248 11.4319 15.0529C10.6095 12.7234 10.2821 10.873 11.9689 8.71715C13.2743 7.05436 14.5419 5.61913 15.7735 4.41147C19.6141 0.652729 25.2871 0.604822 30.03 2.56503C36.8348 5.37361 41.8531 10.8889 45.8873 17.0989C53.7821 29.2714 55.6504 43.8572 51.2769 57.5807Z" fill="#06979C"/>
</g>
</g>
<mask id="mask2_3546_35476" style="mask-type:luminance" maskUnits="userSpaceOnUse" x="5" y="27" width="42" height="32">
<path d="M5 27.0618H46.2742V59H5V27.0618Z" fill="white"/>
</mask>
<g mask="url(#mask2_3546_35476)">
<mask id="mask3_3546_35476" style="mask-type:luminance" maskUnits="userSpaceOnUse" x="-11" y="-18" width="76" height="77">
<path d="M-10.0308 21.8658V19.4804C-10.0308 18.2647 -9.97088 17.0531 -9.85111 15.8454C-9.73134 14.6357 -9.55368 13.436 -9.31614 12.2443C-9.0786 11.0526 -8.78517 9.87692 -8.43185 8.71317C-8.07853 7.55141 -7.66932 6.40962 -7.20422 5.28779C-6.73912 4.16396 -6.22013 3.06808 -5.64524 1.99615C-5.07234 0.926214 -4.44955 -0.115772 -3.77285 -1.12582C-3.09816 -2.13587 -2.37356 -3.10999 -1.60305 -4.04817C-0.830541 -4.98836 -0.0161142 -5.88662 0.844223 -6.74496C1.70456 -7.6053 2.60282 -8.41973 3.54301 -9.19024C4.48319 -9.96075 5.4593 -10.6834 6.46935 -11.358C7.4814 -12.0327 8.52139 -12.6575 9.59531 -13.2304C10.6672 -13.8013 11.7651 -14.3203 12.8889 -14.7854C14.0108 -15.2505 15.1546 -15.6597 16.3183 -16.0111C17.4821 -16.3644 18.6598 -16.6598 19.8535 -16.8953C21.0452 -17.1329 22.2469 -17.3105 23.4565 -17.4303C24.6662 -17.5501 25.8798 -17.608 27.0955 -17.608C28.3111 -17.608 29.5248 -17.5501 30.7345 -17.4303C31.9441 -17.3105 33.1458 -17.1329 34.3375 -16.8953C35.5312 -16.6598 36.7089 -16.3644 37.8727 -16.0111C39.0364 -15.6597 40.1802 -15.2505 41.302 -14.7854C42.4259 -14.3203 43.5237 -13.8013 44.5957 -13.2304C45.6676 -12.6575 46.7096 -12.0327 47.7216 -11.358C48.7317 -10.6834 49.7078 -9.96075 50.648 -9.19024C51.5882 -8.41973 52.4864 -7.6053 53.3468 -6.74496C54.2071 -5.88662 55.0215 -4.98836 55.794 -4.04817C56.5645 -3.10999 57.2891 -2.13587 57.9638 -1.12582C58.6385 -0.115772 59.2633 0.926214 59.8362 1.99615C60.4091 3.06808 60.9301 4.16396 61.3952 5.28779C61.8603 6.40962 62.2695 7.55141 62.6228 8.71317C62.9742 9.87692 63.2696 11.0526 63.5071 12.2443C63.7447 13.436 63.9223 14.6357 64.0421 15.8454C64.1619 17.0531 64.2197 18.2647 64.2197 19.4804V21.8658C64.2197 23.0814 64.1619 24.2931 64.0421 25.5027C63.9223 26.7104 63.7447 27.9101 63.5071 29.1018C63.2696 30.2935 62.9742 31.4712 62.6228 32.6329C62.2695 33.7947 61.8603 34.9385 61.3952 36.0603C60.9301 37.1822 60.4091 38.28 59.8362 39.35C59.2633 40.4219 58.6385 41.4619 57.9638 42.4719C57.2891 43.482 56.5645 44.4561 55.794 45.3963C55.0215 46.3345 54.2071 47.2347 53.3468 48.0931C52.4864 48.9514 51.5882 49.7658 50.648 50.5364C49.7078 51.3069 48.7317 52.0295 47.7216 52.7062C46.7096 53.3809 45.6676 54.0037 44.5957 54.5765C43.5237 55.1494 42.4259 55.6684 41.302 56.1335C40.1802 56.5966 39.0364 57.0059 37.8727 57.3592C36.7089 57.7105 35.5312 58.0059 34.3375 58.2435C33.1458 58.481 31.9441 58.6587 30.7345 58.7764C29.5248 58.8962 28.3111 58.9561 27.0955 58.9561C25.8798 58.9561 24.6662 58.8962 23.4565 58.7764C22.2469 58.6587 21.0452 58.481 19.8535 58.2435C18.6598 58.0059 17.4821 57.7105 16.3183 57.3592C15.1546 57.0059 14.0108 56.5966 12.8889 56.1335C11.7651 55.6684 10.6672 55.1494 9.59531 54.5765C8.52139 54.0037 7.4814 53.3809 6.46935 52.7062C5.4593 52.0295 4.48319 51.3069 3.54301 50.5364C2.60282 49.7658 1.70456 48.9514 0.844223 48.0931C-0.0161142 47.2347 -0.830541 46.3345 -1.60305 45.3963C-2.37356 44.4561 -3.09816 43.482 -3.77285 42.4719C-4.44955 41.4619 -5.07234 40.4219 -5.64524 39.35C-6.22013 38.28 -6.73912 37.1822 -7.20422 36.0603C-7.66932 34.9385 -8.07853 33.7947 -8.43185 32.6329C-8.78517 31.4712 -9.0786 30.2935 -9.31614 29.1018C-9.55368 27.9101 -9.73134 26.7104 -9.85111 25.5027C-9.97088 24.2931 -10.0308 23.0814 -10.0308 21.8658Z" fill="white"/>
</mask>
<g mask="url(#mask3_3546_35476)">
<path d="M41.7552 44.5279C41.9987 44.4641 42.2203 44.0469 42.4239 43.2823C43.2004 41.3261 43.5358 39.4078 43.428 37.5255C43.3541 36.2479 42.362 35.202 40.9907 35.0063C40.1703 34.8946 38.749 34.6949 38.224 33.9763C37.1681 32.5371 35.9105 31.3873 34.4473 30.523C34.1799 30.3673 34.0222 30.4432 33.9742 30.7506L33.569 33.3855C33.5411 33.5671 33.4712 33.7388 33.3654 33.8885C33.2576 34.0382 33.1199 34.16 32.9582 34.2478L30.2914 35.691C30.1716 35.7549 30.0379 35.7928 29.9021 35.8008C29.7664 35.8068 29.6306 35.7848 29.5029 35.7349L27.2413 34.8327C27.2113 34.8227 27.1814 34.8187 27.1494 34.8227C27.1195 34.8267 27.0896 34.8407 27.0656 34.8586C27.0416 34.8786 27.0217 34.9045 27.0097 34.9345C26.9977 34.9644 26.9937 34.9964 26.9977 35.0283C27.2972 37.0843 28.1954 38.9607 29.3492 40.6874C31.3733 43.7155 31.3593 47.0251 28.4988 49.5402C27.7064 50.2369 26.3809 50.8517 24.5225 51.3887C22.217 52.0534 19.9833 52.3169 17.8195 52.1772C15.454 52.0234 13.1864 52.6902 11.1803 53.8699C7.63715 55.9558 6.16599 58.8742 6.76084 62.623C6.81873 62.9883 6.95048 63.0182 7.15807 62.7068C9.40773 59.3653 12.4718 57.7484 16.3483 57.8562C18.9094 57.926 21.698 59.1577 22.9116 61.4872C24.3309 64.2159 23.5105 66.9845 21.2848 68.9288C21.1231 69.0685 21.147 69.1543 21.3566 69.1843C23.0214 69.4238 24.7042 69.3799 26.4069 69.0545C26.6624 69.0066 26.9279 69.0525 27.1554 69.1843C27.5986 69.4418 27.8401 69.7492 27.88 70.1005C27.9858 71.0048 27.5906 71.5417 26.6983 71.7154C23.7261 72.2943 20.8157 72.0787 17.9712 71.0706C17.8434 71.0267 17.7137 71.0187 17.5819 71.0467C12.7293 72.1326 8.80689 70.8012 5.81866 67.0524C5.72884 66.9406 5.61506 66.8987 5.47533 66.9286C-0.0200539 68.1163 -5.10822 64.3776 -4.84473 58.6087C-4.68504 55.0476 -3.09411 52.0973 -0.0699577 49.7538C0.993985 48.9334 -1.68284 49.139 -0.872407 48.0172C0.632684 45.9192 -11.5757 49.2708 -13.4142 50.8018C-13.522 50.8916 -7.1902 50.195 -2.0681 47.3585C-2.34157 48.0292 -0.566998 45.8095 -1.43732 45.8454C-2.61105 45.8933 -3.13603 44.8194 -2.72283 43.8333C-6.44564 40.6874 -10.8851 46.7057 -8.23817 48.7138C-5.81086 51.2929 2.90829 48.9873 -0.028039 50.8018C-1.16185 51.5025 1.46508 51.8418 0.586773 52.7261C-1.90641 55.2452 -3.36359 59.3233 -1.02012 62.3675C0.223475 63.9823 1.95014 64.671 4.15987 64.4335C4.31557 64.4175 4.37545 64.3337 4.33752 64.182C3.14782 59.1736 6.76084 54.2911 8.72704 52.253C11.5476 50.2409 14.6037 49.3187 17.8973 49.4923C20.7059 49.6381 23.2749 49.157 25.8699 48.0172C27.4948 47.3006 28.4709 45.6318 27.912 43.9171C27.6624 43.1486 27.2812 42.3881 26.7722 41.6375C25.1533 39.2601 24.3069 36.6532 24.1772 33.6849C24.1333 32.6189 25.0874 31.6109 26.1514 31.8005C27.2153 31.9922 28.3232 32.3395 29.4749 32.8405C29.6366 32.9104 29.7963 32.9024 29.952 32.8166L30.8024 32.3315C30.9641 32.2397 31.0539 32.1 31.0739 31.9143C31.2156 30.4591 31.535 29.1217 32.028 27.9041C32.3514 27.1076 33.2217 27.0198 33.9343 27.3052C36.3636 28.2833 38.3897 29.8084 40.0126 31.8784C40.0944 31.9842 40.2002 32.054 40.328 32.092C40.6993 32.1998 41.0765 32.2856 41.4558 32.3475C47.2107 33.2897 46.4901 39.7292 45.2245 43.6496C45.0568 44.1706 45.0249 44.6976 45.1267 45.2306C46.4621 52.1971 43.9769 60.4671 39.9667 66.6332C39.819 66.8588 39.8649 66.9107 40.1044 66.7869C40.7012 66.4795 41.3021 66.23 41.9089 66.0384C42.5297 65.8447 43.0507 65.9964 43.4719 66.4955C43.5497 66.5873 43.6056 66.6911 43.6376 66.8069C43.8452 67.5993 43.5817 68.1722 42.8451 68.5296C40.8769 69.4797 38.755 70.1125 36.4754 70.4239C35.2318 70.5936 34.4673 69.1464 35.3017 68.2142C39.2181 63.8226 41.6334 58.5648 42.5497 52.4347C42.5696 52.2889 42.5137 52.1891 42.378 52.1312C42.3421 52.1153 42.3041 52.1173 42.2662 52.1352C42.0666 52.241 41.8929 52.2051 41.7472 52.0314C41.5396 51.7859 41.4917 51.5623 41.6015 51.3647C42.8591 49.0412 42.911 46.7616 41.7552 44.5279ZM8.27392 65.8248C11.1444 69.1144 15.8333 69.7572 19.3425 67.0604C22.1591 64.9026 20.9155 61.5191 17.7396 60.7825C14.7414 60.0879 11.5196 61.0819 9.77901 63.6849C9.35583 64.3197 8.86078 64.9066 8.29588 65.4475C8.16812 65.5673 8.16213 65.691 8.27392 65.8248Z" fill="#06979C"/>
</g>
</g>
<mask id="mask4_3546_35476" style="mask-type:luminance" maskUnits="userSpaceOnUse" x="11" y="4" width="44" height="35">
<path d="M11.0146 4.57715H54.824V38.815H11.0146V4.57715Z" fill="white"/>
</mask>
<g mask="url(#mask4_3546_35476)">
<mask id="mask5_3546_35476" style="mask-type:luminance" maskUnits="userSpaceOnUse" x="-11" y="-18" width="76" height="77">
<path d="M-10.0308 21.8657V19.4803C-10.0308 18.2646 -9.97088 17.053 -9.85111 15.8453C-9.73134 14.6357 -9.55368 13.436 -9.31614 12.2443C-9.0786 11.0526 -8.78517 9.87686 -8.43185 8.71311C-8.07853 7.55135 -7.66932 6.40956 -7.20422 5.28773C-6.73912 4.1639 -6.22013 3.06801 -5.64524 1.99609C-5.07234 0.926153 -4.44955 -0.115833 -3.77285 -1.12588C-3.09816 -2.13593 -2.37356 -3.11005 -1.60305 -4.04823C-0.830541 -4.98842 -0.0161142 -5.88668 0.844223 -6.74502C1.70456 -7.60536 2.60282 -8.41979 3.54301 -9.1903C4.48319 -9.96081 5.4593 -10.6834 6.46935 -11.3581C7.4814 -12.0328 8.52139 -12.6576 9.59531 -13.2305C10.6672 -13.8014 11.7651 -14.3204 12.8889 -14.7855C14.0108 -15.2506 15.1546 -15.6598 16.3183 -16.0111C17.4821 -16.3644 18.6598 -16.6599 19.8535 -16.8954C21.0452 -17.133 22.2469 -17.3106 23.4565 -17.4304C24.6662 -17.5501 25.8798 -17.608 27.0955 -17.608C28.3111 -17.608 29.5248 -17.5501 30.7345 -17.4304C31.9441 -17.3106 33.1458 -17.133 34.3375 -16.8954C35.5312 -16.6599 36.7089 -16.3644 37.8727 -16.0111C39.0364 -15.6598 40.1802 -15.2506 41.302 -14.7855C42.4259 -14.3204 43.5237 -13.8014 44.5957 -13.2305C45.6676 -12.6576 46.7096 -12.0328 47.7216 -11.3581C48.7317 -10.6834 49.7078 -9.96081 50.648 -9.1903C51.5882 -8.41979 52.4864 -7.60536 53.3468 -6.74502C54.2071 -5.88668 55.0215 -4.98842 55.794 -4.04823C56.5645 -3.11005 57.2891 -2.13593 57.9638 -1.12588C58.6385 -0.115833 59.2633 0.926153 59.8362 1.99609C60.4091 3.06801 60.9301 4.1639 61.3952 5.28773C61.8603 6.40956 62.2695 7.55135 62.6228 8.71311C62.9742 9.87686 63.2696 11.0526 63.5071 12.2443C63.7447 13.436 63.9223 14.6357 64.0421 15.8453C64.1619 17.053 64.2197 18.2646 64.2197 19.4803V21.8657C64.2197 23.0813 64.1619 24.293 64.0421 25.5027C63.9223 26.7103 63.7447 27.91 63.5071 29.1017C63.2696 30.2934 62.9742 31.4711 62.6228 32.6329C62.2695 33.7946 61.8603 34.9384 61.3952 36.0603C60.9301 37.1821 60.4091 38.28 59.8362 39.3499C59.2633 40.4218 58.6385 41.4618 57.9638 42.4719C57.2891 43.4819 56.5645 44.456 55.794 45.3962C55.0215 46.3344 54.2071 47.2347 53.3468 48.093C52.4864 48.9514 51.5882 49.7658 50.648 50.5363C49.7078 51.3068 48.7317 52.0294 47.7216 52.7061C46.7096 53.3808 45.6676 54.0036 44.5957 54.5765C43.5237 55.1494 42.4259 55.6684 41.302 56.1335C40.1802 56.5966 39.0364 57.0058 37.8727 57.3591C36.7089 57.7104 35.5312 58.0059 34.3375 58.2434C33.1458 58.4809 31.9441 58.6586 30.7345 58.7764C29.5248 58.8961 28.3111 58.956 27.0955 58.956C25.8798 58.956 24.6662 58.8961 23.4565 58.7764C22.2469 58.6586 21.0452 58.4809 19.8535 58.2434C18.6598 58.0059 17.4821 57.7104 16.3183 57.3591C15.1546 57.0058 14.0108 56.5966 12.8889 56.1335C11.7651 55.6684 10.6672 55.1494 9.59531 54.5765C8.52139 54.0036 7.4814 53.3808 6.46935 52.7061C5.4593 52.0294 4.48319 51.3068 3.54301 50.5363C2.60282 49.7658 1.70456 48.9514 0.844223 48.093C-0.0161142 47.2347 -0.830541 46.3344 -1.60305 45.3962C-2.37356 44.456 -3.09816 43.4819 -3.77285 42.4719C-4.44955 41.4618 -5.07234 40.4218 -5.64524 39.3499C-6.22013 38.28 -6.73912 37.1821 -7.20422 36.0603C-7.66932 34.9384 -8.07853 33.7946 -8.43185 32.6329C-8.78517 31.4711 -9.0786 30.2934 -9.31614 29.1017C-9.55368 27.91 -9.73134 26.7103 -9.85111 25.5027C-9.97088 24.293 -10.0308 23.0813 -10.0308 21.8657Z" fill="white"/>
</mask>
<g mask="url(#mask5_3546_35476)">
<path d="M22.5923 27.5307C30.6667 26.2412 38.0364 22.0873 43.3003 15.8373" stroke="#06979C" stroke-width="1.98939"/>
</g>
</g>
<mask id="mask6_3546_35476" style="mask-type:luminance" maskUnits="userSpaceOnUse" x="18" y="38" width="35" height="21">
<path d="M18.6797 38.3039H52.4065V58.7444H18.6797V38.3039Z" fill="white"/>
</mask>
<g mask="url(#mask6_3546_35476)">
<mask id="mask7_3546_35476" style="mask-type:luminance" maskUnits="userSpaceOnUse" x="-11" y="-18" width="76" height="77">
<path d="M-10.0308 21.8657V19.4803C-10.0308 18.2646 -9.97088 17.053 -9.85111 15.8453C-9.73134 14.6357 -9.55368 13.436 -9.31614 12.2443C-9.0786 11.0526 -8.78517 9.87686 -8.43185 8.71311C-8.07853 7.55135 -7.66932 6.40956 -7.20422 5.28773C-6.73912 4.1639 -6.22013 3.06801 -5.64524 1.99609C-5.07234 0.926153 -4.44955 -0.115833 -3.77285 -1.12588C-3.09816 -2.13593 -2.37356 -3.11005 -1.60305 -4.04823C-0.830541 -4.98842 -0.0161142 -5.88668 0.844223 -6.74502C1.70456 -7.60536 2.60282 -8.41979 3.54301 -9.1903C4.48319 -9.96081 5.4593 -10.6834 6.46935 -11.3581C7.4814 -12.0328 8.52139 -12.6576 9.59531 -13.2305C10.6672 -13.8014 11.7651 -14.3204 12.8889 -14.7855C14.0108 -15.2506 15.1546 -15.6598 16.3183 -16.0111C17.4821 -16.3644 18.6598 -16.6599 19.8535 -16.8954C21.0452 -17.133 22.2469 -17.3106 23.4565 -17.4304C24.6662 -17.5501 25.8798 -17.608 27.0955 -17.608C28.3111 -17.608 29.5248 -17.5501 30.7345 -17.4304C31.9441 -17.3106 33.1458 -17.133 34.3375 -16.8954C35.5312 -16.6599 36.7089 -16.3644 37.8727 -16.0111C39.0364 -15.6598 40.1802 -15.2506 41.302 -14.7855C42.4259 -14.3204 43.5237 -13.8014 44.5957 -13.2305C45.6676 -12.6576 46.7096 -12.0328 47.7216 -11.3581C48.7317 -10.6834 49.7078 -9.96081 50.648 -9.1903C51.5882 -8.41979 52.4864 -7.60536 53.3468 -6.74502C54.2071 -5.88668 55.0215 -4.98842 55.794 -4.04823C56.5645 -3.11005 57.2891 -2.13593 57.9638 -1.12588C58.6385 -0.115833 59.2633 0.926153 59.8362 1.99609C60.4091 3.06801 60.9301 4.1639 61.3952 5.28773C61.8603 6.40956 62.2695 7.55135 62.6228 8.71311C62.9742 9.87686 63.2696 11.0526 63.5071 12.2443C63.7447 13.436 63.9223 14.6357 64.0421 15.8453C64.1619 17.053 64.2197 18.2646 64.2197 19.4803V21.8657C64.2197 23.0813 64.1619 24.293 64.0421 25.5027C63.9223 26.7103 63.7447 27.91 63.5071 29.1017C63.2696 30.2934 62.9742 31.4711 62.6228 32.6329C62.2695 33.7946 61.8603 34.9384 61.3952 36.0603C60.9301 37.1821 60.4091 38.28 59.8362 39.3499C59.2633 40.4218 58.6385 41.4618 57.9638 42.4719C57.2891 43.4819 56.5645 44.456 55.794 45.3962C55.0215 46.3344 54.2071 47.2347 53.3468 48.093C52.4864 48.9514 51.5882 49.7658 50.648 50.5363C49.7078 51.3068 48.7317 52.0294 47.7216 52.7061C46.7096 53.3808 45.6676 54.0036 44.5957 54.5765C43.5237 55.1494 42.4259 55.6684 41.302 56.1335C40.1802 56.5966 39.0364 57.0058 37.8727 57.3591C36.7089 57.7104 35.5312 58.0059 34.3375 58.2434C33.1458 58.4809 31.9441 58.6586 30.7345 58.7764C29.5248 58.8961 28.3111 58.956 27.0955 58.956C25.8798 58.956 24.6662 58.8961 23.4565 58.7764C22.2469 58.6586 21.0452 58.4809 19.8535 58.2434C18.6598 58.0059 17.4821 57.7104 16.3183 57.3591C15.1546 57.0058 14.0108 56.5966 12.8889 56.1335C11.7651 55.6684 10.6672 55.1494 9.59531 54.5765C8.52139 54.0036 7.4814 53.3808 6.46935 52.7061C5.4593 52.0294 4.48319 51.3068 3.54301 50.5363C2.60282 49.7658 1.70456 48.9514 0.844223 48.093C-0.0161142 47.2347 -0.830541 46.3344 -1.60305 45.3962C-2.37356 44.456 -3.09816 43.4819 -3.77285 42.4719C-4.44955 41.4618 -5.07234 40.4218 -5.64524 39.3499C-6.22013 38.28 -6.73912 37.1821 -7.20422 36.0603C-7.66932 34.9384 -8.07853 33.7946 -8.43185 32.6329C-8.78517 31.4711 -9.0786 30.2934 -9.31614 29.1017C-9.55368 27.91 -9.73134 26.7103 -9.85111 25.5027C-9.97088 24.293 -10.0308 23.0813 -10.0308 21.8657Z" fill="white"/>
</mask>
<g mask="url(#mask7_3546_35476)">
<path d="M28.2173 47.4842C32.8463 50.2089 38.6072 50.2149 43.2303 47.4842" stroke="#06979C" stroke-width="1.61781"/>
</g>
</g>
<mask id="mask8_3546_35476" style="mask-type:luminance" maskUnits="userSpaceOnUse" x="21" y="5" width="14" height="15">
<path d="M21.2344 5.59912H34.0097V19.3965H21.2344V5.59912Z" fill="white"/>
</mask>
<g mask="url(#mask8_3546_35476)">
<mask id="mask9_3546_35476" style="mask-type:luminance" maskUnits="userSpaceOnUse" x="-11" y="-18" width="76" height="77">
<path d="M-10.031 21.8657V19.4803C-10.031 18.2646 -9.97112 17.053 -9.85135 15.8453C-9.73158 14.6357 -9.55393 13.436 -9.31639 12.2443C-9.07885 11.0526 -8.78541 9.87686 -8.4321 8.71311C-8.07878 7.55135 -7.66957 6.40956 -7.20447 5.28773C-6.73937 4.1639 -6.22037 3.06801 -5.64548 1.99609C-5.07259 0.926153 -4.44979 -0.115833 -3.7731 -1.12588C-3.0984 -2.13593 -2.3738 -3.11005 -1.60329 -4.04823C-0.830785 -4.98842 -0.0163584 -5.88668 0.843979 -6.74502C1.70432 -7.60536 2.60258 -8.41979 3.54276 -9.1903C4.48295 -9.96081 5.45906 -10.6834 6.46911 -11.3581C7.48115 -12.0328 8.52114 -12.6576 9.59507 -13.2305C10.667 -13.8014 11.7649 -14.3204 12.8887 -14.7855C14.0105 -15.2506 15.1543 -15.6598 16.3181 -16.0111C17.4818 -16.3644 18.6596 -16.6599 19.8532 -16.8954C21.0449 -17.133 22.2466 -17.3106 23.4563 -17.4304C24.6659 -17.5501 25.8796 -17.608 27.0952 -17.608C28.3109 -17.608 29.5246 -17.5501 30.7342 -17.4304C31.9439 -17.3106 33.1456 -17.133 34.3373 -16.8954C35.5309 -16.6599 36.7087 -16.3644 37.8724 -16.0111C39.0362 -15.6598 40.18 -15.2506 41.3018 -14.7855C42.4256 -14.3204 43.5235 -13.8014 44.5954 -13.2305C45.6674 -12.6576 46.7093 -12.0328 47.7214 -11.3581C48.7314 -10.6834 49.7076 -9.96081 50.6477 -9.1903C51.5879 -8.41979 52.4862 -7.60536 53.3465 -6.74502C54.2069 -5.88668 55.0213 -4.98842 55.7938 -4.04823C56.5643 -3.11005 57.2889 -2.13593 57.9636 -1.12588C58.6383 -0.115833 59.2631 0.926153 59.836 1.99609C60.4089 3.06801 60.9299 4.1639 61.395 5.28773C61.8601 6.40956 62.2693 7.55135 62.6226 8.71311C62.9739 9.87686 63.2693 11.0526 63.5069 12.2443C63.7444 13.436 63.9221 14.6357 64.0419 15.8453C64.1616 17.053 64.2195 18.2646 64.2195 19.4803V21.8657C64.2195 23.0813 64.1616 24.293 64.0419 25.5027C63.9221 26.7103 63.7444 27.91 63.5069 29.1017C63.2693 30.2934 62.9739 31.4711 62.6226 32.6329C62.2693 33.7946 61.8601 34.9384 61.395 36.0603C60.9299 37.1821 60.4089 38.28 59.836 39.3499C59.2631 40.4218 58.6383 41.4618 57.9636 42.4719C57.2889 43.4819 56.5643 44.456 55.7938 45.3962C55.0213 46.3344 54.2069 47.2347 53.3465 48.093C52.4862 48.9514 51.5879 49.7658 50.6477 50.5363C49.7076 51.3068 48.7314 52.0294 47.7214 52.7061C46.7093 53.3808 45.6674 54.0036 44.5954 54.5765C43.5235 55.1494 42.4256 55.6684 41.3018 56.1335C40.18 56.5966 39.0362 57.0058 37.8724 57.3591C36.7087 57.7104 35.5309 58.0059 34.3373 58.2434C33.1456 58.4809 31.9439 58.6586 30.7342 58.7764C29.5246 58.8961 28.3109 58.956 27.0952 58.956C25.8796 58.956 24.6659 58.8961 23.4563 58.7764C22.2466 58.6586 21.0449 58.4809 19.8532 58.2434C18.6596 58.0059 17.4818 57.7104 16.3181 57.3591C15.1543 57.0058 14.0105 56.5966 12.8887 56.1335C11.7649 55.6684 10.667 55.1494 9.59507 54.5765C8.52114 54.0036 7.48115 53.3808 6.46911 52.7061C5.45906 52.0294 4.48295 51.3068 3.54276 50.5363C2.60258 49.7658 1.70432 48.9514 0.843979 48.093C-0.0163584 47.2347 -0.830785 46.3344 -1.60329 45.3962C-2.3738 44.456 -3.0984 43.4819 -3.7731 42.4719C-4.44979 41.4618 -5.07259 40.4218 -5.64548 39.3499C-6.22037 38.28 -6.73937 37.1821 -7.20447 36.0603C-7.66957 34.9384 -8.07878 33.7946 -8.4321 32.6329C-8.78541 31.4711 -9.07885 30.2934 -9.31639 29.1017C-9.55393 27.91 -9.73158 26.7103 -9.85135 25.5027C-9.97112 24.293 -10.031 23.0813 -10.031 21.8657Z" fill="white"/>
</mask>
<g mask="url(#mask9_3546_35476)">
<path d="M29.301 16.3185C30.3071 15.3364 32.3032 12.1306 30.6923 10.889C29.5046 9.97275 28.5844 8.83695 27.9316 7.48556C27.8618 7.34184 27.8259 7.18414 27.8219 7.02445C27.8199 6.86476 27.8518 6.70706 27.9157 6.55935C28.1313 6.0683 28.4387 5.78485 28.8379 5.707C29.5385 5.56328 30.0555 5.8068 30.3929 6.43759C30.87 7.32986 31.4988 8.08241 32.2792 8.69722C33.8243 9.91886 34.3133 11.7134 33.7843 13.6536C33.1935 15.8015 32.1994 17.4323 30.8021 18.5462C29.317 19.7299 27.3368 18.9135 25.9455 17.9513C22.6499 15.6717 21.2466 12.5059 21.7416 8.45569C21.8195 7.81692 22.1628 7.39773 22.7736 7.19812C23.8136 6.86276 24.5003 7.96663 24.3765 8.84693C23.8935 12.1585 25.682 15.2506 28.8379 16.4143C28.9177 16.4442 29.0036 16.4502 29.0854 16.4323C29.1673 16.4163 29.2411 16.3764 29.301 16.3185Z" fill="#06979C"/>
</g>
</g>
<mask id="mask10_3546_35476" style="mask-type:luminance" maskUnits="userSpaceOnUse" x="28" y="19" width="12" height="9">
<path d="M28.8999 19.3962H39.6312V27.5724H28.8999V19.3962Z" fill="white"/>
</mask>
<g mask="url(#mask10_3546_35476)">
<mask id="mask11_3546_35476" style="mask-type:luminance" maskUnits="userSpaceOnUse" x="-11" y="-18" width="76" height="77">
<path d="M-10.0308 21.8657V19.4803C-10.0308 18.2646 -9.97088 17.053 -9.85111 15.8453C-9.73134 14.6357 -9.55368 13.436 -9.31614 12.2443C-9.0786 11.0526 -8.78517 9.87686 -8.43185 8.71311C-8.07853 7.55135 -7.66932 6.40956 -7.20422 5.28773C-6.73912 4.1639 -6.22013 3.06801 -5.64524 1.99609C-5.07234 0.926153 -4.44955 -0.115833 -3.77285 -1.12588C-3.09816 -2.13593 -2.37356 -3.11005 -1.60305 -4.04823C-0.830541 -4.98842 -0.0161142 -5.88668 0.844223 -6.74502C1.70456 -7.60536 2.60282 -8.41979 3.54301 -9.1903C4.48319 -9.96081 5.4593 -10.6834 6.46935 -11.3581C7.4814 -12.0328 8.52139 -12.6576 9.59531 -13.2305C10.6672 -13.8014 11.7651 -14.3204 12.8889 -14.7855C14.0108 -15.2506 15.1546 -15.6598 16.3183 -16.0111C17.4821 -16.3644 18.6598 -16.6599 19.8535 -16.8954C21.0452 -17.133 22.2469 -17.3106 23.4565 -17.4304C24.6662 -17.5501 25.8798 -17.608 27.0955 -17.608C28.3111 -17.608 29.5248 -17.5501 30.7345 -17.4304C31.9441 -17.3106 33.1458 -17.133 34.3375 -16.8954C35.5312 -16.6599 36.7089 -16.3644 37.8727 -16.0111C39.0364 -15.6598 40.1802 -15.2506 41.302 -14.7855C42.4259 -14.3204 43.5237 -13.8014 44.5957 -13.2305C45.6676 -12.6576 46.7096 -12.0328 47.7216 -11.3581C48.7317 -10.6834 49.7078 -9.96081 50.648 -9.1903C51.5882 -8.41979 52.4864 -7.60536 53.3468 -6.74502C54.2071 -5.88668 55.0215 -4.98842 55.794 -4.04823C56.5645 -3.11005 57.2891 -2.13593 57.9638 -1.12588C58.6385 -0.115833 59.2633 0.926153 59.8362 1.99609C60.4091 3.06801 60.9301 4.1639 61.3952 5.28773C61.8603 6.40956 62.2695 7.55135 62.6228 8.71311C62.9742 9.87686 63.2696 11.0526 63.5071 12.2443C63.7447 13.436 63.9223 14.6357 64.0421 15.8453C64.1619 17.053 64.2197 18.2646 64.2197 19.4803V21.8657C64.2197 23.0813 64.1619 24.293 64.0421 25.5027C63.9223 26.7103 63.7447 27.91 63.5071 29.1017C63.2696 30.2934 62.9742 31.4711 62.6228 32.6329C62.2695 33.7946 61.8603 34.9384 61.3952 36.0603C60.9301 37.1821 60.4091 38.28 59.8362 39.3499C59.2633 40.4218 58.6385 41.4618 57.9638 42.4719C57.2891 43.4819 56.5645 44.456 55.794 45.3962C55.0215 46.3344 54.2071 47.2347 53.3468 48.093C52.4864 48.9514 51.5882 49.7658 50.648 50.5363C49.7078 51.3068 48.7317 52.0294 47.7216 52.7061C46.7096 53.3808 45.6676 54.0036 44.5957 54.5765C43.5237 55.1494 42.4259 55.6684 41.302 56.1335C40.1802 56.5966 39.0364 57.0058 37.8727 57.3591C36.7089 57.7104 35.5312 58.0059 34.3375 58.2434C33.1458 58.4809 31.9441 58.6586 30.7345 58.7764C29.5248 58.8961 28.3111 58.956 27.0955 58.956C25.8798 58.956 24.6662 58.8961 23.4565 58.7764C22.2469 58.6586 21.0452 58.4809 19.8535 58.2434C18.6598 58.0059 17.4821 57.7104 16.3183 57.3591C15.1546 57.0058 14.0108 56.5966 12.8889 56.1335C11.7651 55.6684 10.6672 55.1494 9.59531 54.5765C8.52139 54.0036 7.4814 53.3808 6.46935 52.7061C5.4593 52.0294 4.48319 51.3068 3.54301 50.5363C2.60282 49.7658 1.70456 48.9514 0.844223 48.093C-0.0161142 47.2347 -0.830541 46.3344 -1.60305 45.3962C-2.37356 44.456 -3.09816 43.4819 -3.77285 42.4719C-4.44955 41.4618 -5.07234 40.4218 -5.64524 39.3499C-6.22013 38.28 -6.73912 37.1821 -7.20422 36.0603C-7.66932 34.9384 -8.07853 33.7946 -8.43185 32.6329C-8.78517 31.4711 -9.0786 30.2934 -9.31614 29.1017C-9.55368 27.91 -9.73134 26.7103 -9.85111 25.5027C-9.97088 24.293 -10.0308 23.0813 -10.0308 21.8657Z" fill="white"/>
</mask>
<g mask="url(#mask11_3546_35476)">
<path d="M29.8182 23.1293L36.4474 19.7538C36.639 19.656 36.8426 19.6001 37.0562 19.5822C37.2698 19.5662 37.4794 19.5902 37.683 19.656C37.8866 19.7239 38.0702 19.8257 38.2339 19.9654C38.3976 20.1052 38.5273 20.2688 38.6252 20.4605L39.1601 21.5104C39.2579 21.7021 39.3158 21.9037 39.3318 22.1173C39.3498 22.3329 39.3238 22.5405 39.2579 22.7441C39.1921 22.9477 39.0883 23.1313 38.9505 23.295C38.8108 23.4587 38.6451 23.5884 38.4535 23.6862L31.8243 27.0597C31.6327 27.1575 31.4291 27.2154 31.2155 27.2314C31.0019 27.2494 30.7923 27.2234 30.5887 27.1575C30.3851 27.0917 30.2014 26.9879 30.0378 26.8501C29.8741 26.7104 29.7443 26.5447 29.6465 26.3531L29.1115 25.3031C29.0137 25.1135 28.9558 24.9099 28.9399 24.6963C28.9219 24.4827 28.9479 24.2731 29.0137 24.0695C29.0796 23.8659 29.1834 23.6822 29.3231 23.5186C29.4609 23.3569 29.6265 23.2271 29.8182 23.1293Z" fill="#06979C"/>
</g>
</g>
<mask id="mask12_3546_35476" style="mask-type:luminance" maskUnits="userSpaceOnUse" x="30" y="46" width="11" height="7">
<path d="M30.9443 46.48H40.1426V52.1011H30.9443V46.48Z" fill="white"/>
</mask>
<g mask="url(#mask12_3546_35476)">
<mask id="mask13_3546_35476" style="mask-type:luminance" maskUnits="userSpaceOnUse" x="-11" y="-18" width="76" height="77">
<path d="M-10.0308 21.8656V19.4802C-10.0308 18.2645 -9.97088 17.0529 -9.85111 15.8452C-9.73134 14.6355 -9.55368 13.4359 -9.31614 12.2442C-9.0786 11.0525 -8.78517 9.87674 -8.43185 8.71298C-8.07853 7.55123 -7.66932 6.40944 -7.20422 5.2876C-6.73912 4.16377 -6.22013 3.06789 -5.64524 1.99596C-5.07234 0.926031 -4.44955 -0.115955 -3.77285 -1.126C-3.09816 -2.13605 -2.37356 -3.11017 -1.60305 -4.04836C-0.830541 -4.98854 -0.0161142 -5.8868 0.844223 -6.74514C1.70456 -7.60548 2.60282 -8.41991 3.54301 -9.19042C4.48319 -9.96093 5.4593 -10.6835 6.46935 -11.3582C7.4814 -12.0329 8.52139 -12.6577 9.59531 -13.2306C10.6672 -13.8015 11.7651 -14.3205 12.8889 -14.7856C14.0108 -15.2507 15.1546 -15.6599 16.3183 -16.0112C17.4821 -16.3646 18.6598 -16.66 19.8535 -16.8955C21.0452 -17.1331 22.2469 -17.3107 23.4565 -17.4305C24.6662 -17.5503 25.8798 -17.6082 27.0955 -17.6082C28.3111 -17.6082 29.5248 -17.5503 30.7345 -17.4305C31.9441 -17.3107 33.1458 -17.1331 34.3375 -16.8955C35.5312 -16.66 36.7089 -16.3646 37.8727 -16.0112C39.0364 -15.6599 40.1802 -15.2507 41.302 -14.7856C42.4259 -14.3205 43.5237 -13.8015 44.5957 -13.2306C45.6676 -12.6577 46.7096 -12.0329 47.7216 -11.3582C48.7317 -10.6835 49.7078 -9.96093 50.648 -9.19042C51.5882 -8.41991 52.4864 -7.60548 53.3468 -6.74514C54.2071 -5.8868 55.0215 -4.98854 55.794 -4.04836C56.5645 -3.11017 57.2891 -2.13605 57.9638 -1.126C58.6385 -0.115955 59.2633 0.926031 59.8362 1.99596C60.4091 3.06789 60.9301 4.16377 61.3952 5.2876C61.8603 6.40944 62.2695 7.55123 62.6228 8.71298C62.9742 9.87674 63.2696 11.0525 63.5071 12.2442C63.7447 13.4359 63.9223 14.6355 64.0421 15.8452C64.1619 17.0529 64.2197 18.2645 64.2197 19.4802V21.8656C64.2197 23.0812 64.1619 24.2929 64.0421 25.5025C63.9223 26.7102 63.7447 27.9099 63.5071 29.1016C63.2696 30.2933 62.9742 31.471 62.6228 32.6328C62.2695 33.7945 61.8603 34.9383 61.3952 36.0601C60.9301 37.182 60.4091 38.2799 59.8362 39.3498C59.2633 40.4217 58.6385 41.4617 57.9638 42.4718C57.2891 43.4818 56.5645 44.4559 55.794 45.3961C55.0215 46.3343 54.2071 47.2346 53.3468 48.0929C52.4864 48.9512 51.5882 49.7657 50.648 50.5362C49.7078 51.3067 48.7317 52.0293 47.7216 52.706C46.7096 53.3807 45.6676 54.0035 44.5957 54.5764C43.5237 55.1493 42.4259 55.6683 41.302 56.1334C40.1802 56.5965 39.0364 57.0057 37.8727 57.359C36.7089 57.7103 35.5312 58.0057 34.3375 58.2433C33.1458 58.4808 31.9441 58.6585 30.7345 58.7762C29.5248 58.896 28.3111 58.9559 27.0955 58.9559C25.8798 58.9559 24.6662 58.896 23.4565 58.7762C22.2469 58.6585 21.0452 58.4808 19.8535 58.2433C18.6598 58.0057 17.4821 57.7103 16.3183 57.359C15.1546 57.0057 14.0108 56.5965 12.8889 56.1334C11.7651 55.6683 10.6672 55.1493 9.59531 54.5764C8.52139 54.0035 7.4814 53.3807 6.46935 52.706C5.4593 52.0293 4.48319 51.3067 3.54301 50.5362C2.60282 49.7657 1.70456 48.9512 0.844223 48.0929C-0.0161142 47.2346 -0.830541 46.3343 -1.60305 45.3961C-2.37356 44.4559 -3.09816 43.4818 -3.77285 42.4718C-4.44955 41.4617 -5.07234 40.4217 -5.64524 39.3498C-6.22013 38.2799 -6.73912 37.182 -7.20422 36.0601C-7.66932 34.9383 -8.07853 33.7945 -8.43185 32.6328C-8.78517 31.471 -9.0786 30.2933 -9.31614 29.1016C-9.55368 27.9099 -9.73134 26.7102 -9.85111 25.5025C-9.97088 24.2929 -10.0308 23.0812 -10.0308 21.8656Z" fill="white"/>
</mask>
<g mask="url(#mask13_3546_35476)">
<path d="M33.3056 46.7575L38.5794 47.4062C38.793 47.4322 38.9926 47.498 39.1802 47.6038C39.3658 47.7076 39.5255 47.8454 39.6573 48.015C39.791 48.1827 39.8848 48.3723 39.9427 48.578C40.0006 48.7856 40.0146 48.9951 39.9886 49.2067L39.8449 50.3765C39.819 50.5901 39.7531 50.7897 39.6473 50.9773C39.5415 51.163 39.4038 51.3226 39.2361 51.4544C39.0664 51.5861 38.8788 51.682 38.6712 51.7378C38.4636 51.7957 38.254 51.8117 38.0424 51.7858L32.7666 51.139C32.553 51.1111 32.3534 51.0452 32.1678 50.9414C31.9801 50.8356 31.8204 50.6979 31.6887 50.5282C31.5569 50.3605 31.4611 50.1729 31.4032 49.9653C31.3473 49.7597 31.3314 49.5481 31.3573 49.3365L31.501 48.1667C31.527 47.9532 31.5929 47.7535 31.6987 47.5679C31.8045 47.3803 31.9422 47.2206 32.1119 47.0888C32.2795 46.9571 32.4692 46.8633 32.6748 46.8054C32.8824 46.7475 33.092 46.7315 33.3056 46.7575Z" fill="#06979C"/>
</g>
</g>
<path d="M6.84842 53.8099L9.07811 52.0074C9.21784 51.8936 9.37553 51.8098 9.5492 51.7599C9.72286 51.708 9.89852 51.692 10.0782 51.71C10.2578 51.7299 10.4275 51.7818 10.5872 51.8677C10.7469 51.9535 10.8826 52.0673 10.9964 52.209C11.1102 52.3487 11.194 52.5064 11.2439 52.6781C11.2958 52.8518 11.3118 53.0294 11.2938 53.2091C11.2739 53.3887 11.222 53.5584 11.1361 53.7161C11.0483 53.8758 10.9345 54.0115 10.7948 54.1253L8.5671 55.9278C8.42537 56.0416 8.26768 56.1254 8.09601 56.1753C7.92234 56.2272 7.74469 56.2432 7.56503 56.2253C7.38538 56.2053 7.21571 56.1534 7.05602 56.0676C6.89632 55.9817 6.76059 55.8679 6.64681 55.7262C6.53303 55.5865 6.45118 55.4288 6.39929 55.2571C6.34739 55.0835 6.33142 54.9058 6.34938 54.7261C6.36934 54.5465 6.42124 54.3768 6.50907 54.2191C6.59491 54.0594 6.70869 53.9237 6.84842 53.8099Z" fill="#06979C"/>
<path d="M50.9351 53.8238C50.2006 53.6821 49.7215 52.9714 49.8632 52.2389L50.7156 47.8573C50.7715 47.5679 50.9272 47.3064 51.1547 47.1168C52.071 46.3482 53.4523 47.1327 53.2567 48.3144L52.5301 52.7159C52.4063 53.4685 51.6837 53.9695 50.9351 53.8238Z" fill="#06979C"/>
<path d="M42.9965 57.5868C42.2239 57.4371 41.7169 56.6885 41.8686 55.916L42.4216 53.0695C42.4954 52.6922 42.725 52.3629 43.0523 52.1633C44.0484 51.5544 45.302 52.3888 45.1243 53.5406L44.6792 56.4051C44.5554 57.2055 43.7929 57.7425 42.9965 57.5868Z" fill="#06979C"/>
</svg>
